<?xml version="1.0" encoding="utf-8"?><!DOCTYPE svg PUBLIC "-//W3C//DTD SVG 1.1//EN" "http://www.w3.org/Graphics/SVG/1.1/DTD/svg11.dtd"><svg viewBox="0 0 960 800" xmlns="http://www.w3.org/2000/svg" xmlns:xlink="http://www.w3.org/1999/xlink"><style>:root>svg{display:none}:root>svg:target{display:block}</style><svg fill="none" viewBox="0 0 960 401" id="404" xmlns="http://www.w3.org/2000/svg"><path d="M175.229 394.335v-74.979H0v-62.205L154.157 6.665h90.387v256.04h50.462v56.651h-50.462v74.979h-69.315Zm-115.34-131.63h115.34V77.756h-4.436L59.888 262.705ZM481.109 401c-24.769 0-46.21-4.443-64.325-13.33-18.114-9.256-33.086-22.401-44.916-39.433-11.83-17.032-20.702-37.953-26.617-62.761-5.545-24.807-8.318-53.133-8.318-84.976 0-31.473 2.773-59.613 8.318-84.421 5.915-25.178 14.787-46.283 26.617-63.316 11.83-17.032 26.802-29.991 44.916-38.878C434.899 4.628 456.34 0 481.109 0c49.168 0 85.397 17.588 108.686 52.763 23.66 35.176 35.49 84.421 35.49 147.737 0 63.316-11.83 112.561-35.49 147.737C566.506 383.412 530.277 401 481.109 401Zm0-61.65c24.769 0 41.959-9.256 51.571-27.77 9.981-18.883 14.972-44.247 14.972-76.09v-69.98c0-31.843-4.991-57.022-14.972-75.535-9.612-18.884-26.802-28.325-51.571-28.325s-42.144 9.441-52.125 28.325c-9.612 18.513-14.418 43.692-14.418 75.535v69.98c0 31.843 4.806 57.207 14.418 76.09 9.981 18.514 27.356 27.77 52.125 27.77ZM840.223 394.335v-74.979H664.994v-62.205L819.151 6.665h90.387v256.04H960v56.651h-50.462v74.979h-69.315Zm-115.341-131.63h115.341V77.756h-4.436L724.882 262.705Z" fill="#F2F2F2"/></svg><svg xml:space="preserve" style="shape-rendering:geometricPrecision;text-rendering:geometricPrecision;image-rendering:optimizeQuality;fill-rule:evenodd;clip-rule:evenodd" viewBox="0 0 5500 1600" id="Logo" xmlns="http://www.w3.org/2000/svg"><defs><style>.gfil0{fill:#2b2a29;fill-rule:nonzero}</style></defs><g id="gСлой_x0020_1"><path class="gfil0" d="m1458.03 37.75 27.48 25.8c-27.48 30.5-45.58 58.99-53.95 85.13-8.38 26.47-12.74 66.69-12.74 120.98 0 222.54 49.6 489.64 149.14 801.32 55.63 172.6 99.2 259.06 130.7 259.06 15.08 0 39.21-17.09 72.39-51.28l24.8 23.46-12.06 13.08c-56.31 59.98-107.58 118.3-154.17 174.6l-19.43 24.8c-83.12-172.26-152.49-359.94-208.13-563.03-55.96-203.09-83.78-368.32-83.78-496 0-53.96 3.69-115.29 11.06-185l3.02-26.48c-52.29 54.63-132.72 149.81-240.63 285.54-67.37 84.46-128.36 157.52-182.65 219.18l-22.46 25.81c35.86-2.35 76.08-3.69 120.65-3.69l285.87 4.69 40.22 1.68c-23.79 65.35-46.58 146.45-68.7 242.97h-37.54c9.72-35.19 14.75-62.67 14.75-82.11 0-24.8-8.38-41.22-25.47-48.93-17.09-7.7-52.28-11.73-105.24-11.73H968.4l-160.54 2.69-19.43 1-25.47 25.47c-141.43 137.41-236.95 227.23-285.88 269.12-48.93 41.89-121.65 94.51-217.84 157.85l-27.48 18.77c46.25-4.36 96.52-6.37 150.14-6.37 123.67 0 218.18 3.68 283.87 11.39l184.32 20.11c49.27 5.7 93.51 8.71 132.72 8.71 101.54 0 182.31-26.14 242.97-78.08 60.66-52.28 97.86-128.7 112.27-228.9 24.47 14.41 36.53 32.84 36.53 55.97 0 55.96-37.53 120.31-112.94 193.04-117.3 112.27-244.31 168.57-382.06 168.57-45.58 0-108.58-4.02-188.34-12.4-194.38-19.77-346.87-29.83-457.8-29.83l-206.11 5.03H8.89l61.67-99.54c172.93-62.67 332.79-160.53 480.25-293.58 147.13-133.05 354.91-366.97 623.36-701.44 129.03-160.53 223.54-269.79 283.86-327.43z"/><path id="g1" class="gfil0" d="M2395.75 146c0 79.76-52.95 239.96-158.52 480.59-183.32 418.92-276.49 661.89-279.84 729.59-1.34 29.49 10.39 43.57 34.86 42.23 18.76-.67 52.28-20.11 100.2-58.31l11.73-9.05 18.77 25.47c-105.23 92.16-182.32 138.41-231.58 138.41-39.21 0-58.65-27.48-58.65-82.44 0-42.57 13.41-102.22 40.55-178.97 27.15-76.41 91.83-237.95 194.38-483.94l93.17-223.87c55.97-134.39 84.12-212.48 84.12-234.93 0-17.77-10.05-26.48-30.16-26.48-7.38 0-24.47 4.36-51.95 12.74-3.02 1-8.04 2.68-14.41 4.69l-10.05-28.49 14.74-6.03c113.28-43.23 194.05-77.08 242.64-101.21z"/><path id="g2" class="gfil0" d="m2695.03 680.54-12.74 30.17h-138.41l-8.04 16.75c-12.4 26.14-46.25 102.55-101.21 229.57-22.46 51.61-53.96 123-94.51 214.16-47.93 105.9-72.06 172.93-72.06 201.08 0 28.15 14.41 42.23 43.24 42.23 34.85 0 82.78-20.45 143.1-61.67l15.75 25.47c-39.21 30.16-84.12 55.97-134.39 77.08-50.6 21.12-92.16 31.51-124.67 31.51-49.26 0-73.73-19.44-73.73-57.98 0-27.48 27.48-104.57 82.44-231.58l102.22-232.59c56.97-131.37 89.82-208.46 99.2-231.58l9.72-22.45h-128.69l13.74-30.17h12.73c56.31 0 94.18-8.71 113.62-26.47 19.1-17.77 45.57-67.7 79.09-149.81 9.72 1.01 16.09 1.34 19.44 1.34 31.5 0 62.67-4.02 93.17-12.06-7.04 19.1-19.78 50.27-38.21 93.5l-29.49 70.71-9.72 22.79h138.41z"/><path id="g3" class="gfil0" d="M3093.51 1062.27c9.05 18.43 13.41 34.51 13.41 48.93 0 62.67-43.57 135.06-130.37 216.5-127.02 119.64-234.94 179.29-323.75 179.29-76.74 0-114.95-43.56-114.95-130.7 0-98.2 29.83-201.08 89.82-309 59.99-108.25 136.73-197.06 230.24-267.1 113.94-85.13 215.16-127.69 304.3-127.69 51.61 0 77.42 19.1 77.42 57.31 0 24.8-12.4 54.96-37.2 90.15-24.8 34.85-55.97 66.69-93.17 94.84-34.85 25.81-78.76 49.27-132.04 71.05-53.29 21.79-94.51 32.51-123.33 32.51-30.84 0-51.95-17.09-63.68-51.27 27.48 4.69 49.27 7.03 65.35 7.03 65.35 0 125.68-19.1 180.64-56.97 55.3-37.87 82.78-78.76 82.78-123 0-31.5-20.11-47.25-60.66-47.25-72.39 0-146.45 44.24-221.86 133.05-53.62 62.34-97.53 135.4-132.05 218.85-34.51 83.45-51.94 157.85-51.94 223.2 0 67.03 28.15 100.54 84.45 100.54 61.33 0 125.01-33.51 191.37-100.88 66.35-67.03 121.32-153.49 165.22-259.39z"/><path id="g4" class="gfil0" d="m3394.8 706.01 536.22-4.02c-5.36 8.05-8.38 12.74-9.72 13.74l-48.26 70.72-42.23 59.99c-87.8 127.68-170.25 219.85-247.33 276.49-77.42 56.3-172.59 94.84-285.87 115.28 35.19 24.13 73.39 56.98 114.62 98.53 54.96 55.97 105.9 83.79 152.82 83.79 52.95 0 95.51-24.8 128.36-74.4 32.51-49.27 48.93-113.95 48.93-193.38 0-35.86-5.03-74.4-14.75-114.95 43.23 25.47 65.02 68.7 65.02 129.7 0 54.96-23.8 120.65-71.72 197.06-58.65 94.84-133.05 142.43-223.54 142.43-75.74 0-150.48-40.88-224.54-122.66-44.91-49.6-78.76-74.4-100.88-74.4-24.13 0-52.95 26.81-86.46 80.44h-37.2c43.9-70.72 85.46-144.45 124.67-220.86 32.17 6.37 61.66 9.72 88.47 9.72 103.9 0 201.09-29.83 290.9-89.48 90.16-59.99 178.3-153.5 264.76-280.51-30.83-2.68-65.01-4.03-103.22-4.03-154.16 0-250.35 6.71-287.55 20.45-37.2 13.74-71.05 55.3-101.21 124.67l-6.7 15.75h-33.52l9.72-22.45c30.84-66.03 61.33-137.41 91.5-214.16l8.71-23.46z"/><path id="g5" class="gfil0" d="m4102.61 706.01 536.22-4.02c-5.36 8.05-8.38 12.74-9.72 13.74l-48.26 70.72-42.23 59.99c-87.8 127.68-170.25 219.85-247.33 276.49-77.42 56.3-172.59 94.84-285.87 115.28 35.19 24.13 73.39 56.98 114.62 98.53 54.96 55.97 105.9 83.79 152.82 83.79 52.95 0 95.51-24.8 128.36-74.4 32.51-49.27 48.93-113.95 48.93-193.38 0-35.86-5.03-74.4-14.75-114.95 43.23 25.47 65.02 68.7 65.02 129.7 0 54.96-23.8 120.65-71.72 197.06-58.65 94.84-133.05 142.43-223.54 142.43-75.74 0-150.48-40.88-224.54-122.66-44.91-49.6-78.76-74.4-100.88-74.4-24.13 0-52.95 26.81-86.46 80.44h-37.2c43.9-70.72 85.46-144.45 124.67-220.86 32.17 6.37 61.66 9.72 88.47 9.72 103.9 0 201.09-29.83 290.9-89.48 90.16-59.99 178.3-153.5 264.76-280.51-30.83-2.68-65.01-4.03-103.22-4.03-154.16 0-250.35 6.71-287.55 20.45-37.2 13.74-71.05 55.3-101.21 124.67l-6.7 15.75h-33.52l9.72-22.45c30.84-66.03 61.33-137.41 91.5-214.16l8.71-23.46z"/><path id="g6" class="gfil0" d="m5202.2 1346.8 17.76 25.47c-68.71 51.61-162.54 92.16-281.85 121.65 3.35-66.02 42.22-179.97 116.96-341.5-84.46 99.2-171.59 181.31-261.07 246.66-89.48 65.35-160.2 97.86-212.82 97.86-45.91 0-68.7-29.16-68.7-87.14 0-98.86 44.24-205.44 132.72-320.05 88.47-114.62 199.4-208.79 333.12-282.86 150.48-84.12 300.62-126.35 449.76-126.35 21.11 0 31.5 7.71 31.5 23.46 0 13.07-9.72 38.21-29.49 74.74-44.57-7.71-87.81-11.73-129.7-11.73-200.08 0-372 77.42-516.11 231.91-106.24 113.28-159.19 225.89-159.19 337.49 0 51.95 19.44 78.09 57.98 78.09 32.84 0 80.09-28.16 141.76-84.46 61.67-56.64 116.63-121.99 165.22-196.05 66.7-103.23 112.27-210.14 136.74-321.07 27.48 17.09 41.22 48.6 41.22 94.18 0 63.67-31.84 136.4-95.51 218.84 31.5-2.68 70.38-11.73 116.96-27.48l-7.71 16.76c-62.67 139.41-94.17 221.19-94.17 244.65 0 18.77 9.05 27.81 26.81 26.47 16.42-1.34 45.58-14.41 87.81-39.54z"/></g></svg><svg viewBox="0 0 24 24" fill="none" id="arrow-down" xmlns="http://www.w3.org/2000/svg"><path d="m12 20 6-6m-6 6-6-6m6 6V9.5M12 4v2.5" stroke="#20252d" stroke-width="1.5" stroke-linecap="round" stroke-linejoin="round"/></svg><svg viewBox="0 0 32 32" id="arrow-right" xmlns="http://www.w3.org/2000/svg"><path d="m31.71 15.29-10-10-1.42 1.42 8.3 8.29H0v2h28.59l-8.29 8.29 1.41 1.41 10-10a1 1 0 0 0 0-1.41Z" data-name="3-Arrow Right"/></svg><svg viewBox="0 0 24 24" fill="none" id="filter" xmlns="http://www.w3.org/2000/svg"><path fill-rule="evenodd" clip-rule="evenodd" d="M9.907 4a48.047 48.047 0 0 0 .186 0c.369 0 .731-.001 1.054.085a2.5 2.5 0 0 1 1.768 1.768c.086.323.086.685.085 1.054V7h8a1 1 0 1 1 0 2h-8v.093c0 .369.001.731-.085 1.054a2.5 2.5 0 0 1-1.768 1.768c-.323.086-.685.086-1.054.085h-.186c-.369 0-.731.001-1.054-.085a2.5 2.5 0 0 1-1.768-1.768C7 9.824 7 9.462 7 9.093V9H5a1 1 0 0 1 0-2h2v-.093c0-.369-.001-.731.085-1.054a2.5 2.5 0 0 1 1.768-1.768C9.176 4 9.538 4 9.907 4Zm-.408 2.005c-.107.005-.132.013-.128.012a.5.5 0 0 0-.354.354.834.834 0 0 0-.012.128C9 6.61 9 6.759 9 7v2c0 .242 0 .39.005.501.005.107.013.132.012.128a.5.5 0 0 0 .354.354c-.004-.001.02.007.128.012.112.005.26.005.501.005.242 0 .39 0 .501-.005.107-.005.132-.013.128-.012a.5.5 0 0 0 .354-.354c-.001.004.007-.02.012-.128C11 9.39 11 9.241 11 9V7c0-.242 0-.39-.005-.501-.005-.107-.013-.132-.012-.128m-1.484-.366C9.61 6 9.759 6 10 6l-.501.005ZM10 6c.242 0 .39 0 .501.005L10 6Zm.501.005c.094.005.125.011.128.012l-.128-.012Zm.129.012ZM15.907 12h.186c.369 0 .731-.001 1.054.085a2.5 2.5 0 0 1 1.768 1.768c.086.323.086.685.085 1.054V15h2a1 1 0 1 1 0 2h-2v.093c0 .369.001.731-.085 1.054a2.5 2.5 0 0 1-1.768 1.768c-.323.086-.685.086-1.054.085h-.186c-.369 0-.731.001-1.054-.085a2.5 2.5 0 0 1-1.768-1.768C13 17.824 13 17.462 13 17.093V17H5a1 1 0 1 1 0-2h8v-.093c0-.369-.001-.731.085-1.054a2.5 2.5 0 0 1 1.768-1.768c.323-.086.685-.086 1.054-.085Zm-.408 2.005c-.107.005-.132.013-.128.012a.5.5 0 0 0-.354.354c.001-.004-.007.021-.012.128C15 14.61 15 14.759 15 15v2c0 .242 0 .39.005.501.005.107.013.132.012.128a.5.5 0 0 0 .354.354c-.004-.001.021.007.128.012.112.005.26.005.501.005.242 0 .39 0 .501-.005.107-.005.132-.013.128-.012a.5.5 0 0 0 .354-.354c-.001.004.007-.02.012-.128C17 17.39 17 17.241 17 17v-2c0-.242 0-.39-.005-.501-.005-.107-.013-.132-.012-.128a.5.5 0 0 0-.354-.354c.004.001-.021-.007-.128-.012C16.39 14 16.241 14 16 14c-.242 0-.39 0-.501.005Z" fill="#0F1729"/></svg><svg fill="none" viewBox="0 0 24 24" id="input_e" xmlns="http://www.w3.org/2000/svg"><circle cx="12" cy="12" r="11.5" stroke="red"/><path d="m15.818 8.182-7.636 7.636M15.818 15.818 8.182 8.182" stroke="red"/></svg><svg fill="none" viewBox="0 0 24 24" id="input_r" xmlns="http://www.w3.org/2000/svg"><circle cx="12" cy="12" r="11.5" stroke="#4EA877"/><path d="M8 12.375 10.667 15 16 8" stroke="#4EA877"/></svg><svg viewBox="0 0 24 24" fill="none" id="menu" xmlns="http://www.w3.org/2000/svg"><path d="M4 6h16M4 12h16M4 18h16" stroke="#000" stroke-width="2" stroke-linecap="round" stroke-linejoin="round"/></svg><svg xml:space="preserve" style="shape-rendering:geometricPrecision;text-rendering:geometricPrecision;image-rendering:optimizeQuality;fill-rule:evenodd;clip-rule:evenodd" viewBox="0 0 15785.75 15785.75" id="noimage" xmlns="http://www.w3.org/2000/svg"><path style="fill:#ebecec" d="M0 0h15785.75v15785.75H0z"/><path d="M1231.39 14554.41c-49.97-55.33-48.6-56.84 860.07-965.94l910.23-910.34 105.73 105.73-912.99 912.95-912.79 912.98-50.26-55.38zm12363.08-854.28-906.2-906.5 55.33-50.11c55.34-50.11 56.86-48.71 959.22 853.63l903.6 903.6-52.87 53-52.87 52.87-906.21-906.49zM5989.59 8132.22c-29.04-12.09-82.62-54.1-118.95-93.19l-66.09-71.06-7.43-1140.38c-7.96-1225.22-6.06-1246.02 127.35-1341.01 64.42-45.85 117.71-52.19 439.33-52.58 201.3-.14 382.88-11.18 403.68-24.25 20.65-13.08 104.79-134.79 186.84-270.56 223.04-368.95 211.62-364.69 965.95-365.25 772.8-.56 772.66-.56 996.26 367.76 83.14 136.97 166.33 258.67 185.04 270.52 18.57 11.7 191.92 21.64 385.38 21.78 392.64.53 478.01 25.45 547.55 159.7 35.39 68.56 39.93 232.94 33.45 1228.36l-7.44 1149.08-172.77 172.77-1922.7 5.26c-1057.38 2.89-1946.38-4.83-1975.43-16.95zm3887.1-172.1 64.85-64.81V6800.6c0-1359.15 48.33-1234.03-476.52-1234.03-203.91 0-394.44-12.52-428.84-28.2-34.86-15.86-125.87-134.53-207.63-270.83-221.13-368.71-204.19-361.83-896.02-361.83-691.85 0-674.89-6.87-896.02 361.83-81.78 136.3-172.78 254.97-207.6 270.83-34.44 15.69-224.98 28.2-428.87 28.2-524.85 0-476.53-125.13-476.53 1234.03v1094.71l64.86 64.81 64.99 64.85h3758.35l64.99-64.85zm-2290.7-260.19c-269.57-113.6-431.48-266.99-548.92-519.63-57.14-122.8-68.31-185.14-68.84-384.53-.42-212.01 8.39-256.63 81.21-409.73 362.93-762.34 1403.25-762.34 1766.18 0 72.01 151.44 81.64 198.54 80.54 396.51-2.22 396.66-176.79 690.05-519.21 873.18-147.71 79.17-194.09 90.3-404.76 98.02-203.09 7.43-259.66-.42-386.18-53.82zm696.38-149.55c358.92-170.56 554.85-576.45 459.02-950.94-101.34-395.14-406.84-635.13-808.86-635.13-402.02 0-707.53 239.98-808.86 635.13-106.16 414.29 141.26 857.89 553.89 992.81 158.04 51.77 450.33 31.54 604.81-41.87zm250.28-705.17c-10.18-10.18-18.57-42.01-18.57-70.49 0-127.52-70.92-275.91-187.65-393.25-104.93-105.31-147.19-128.43-285.56-155.57-179.79-35.39-213.94-62.77-153.49-123.22 100.34-100.35 483.64 62.24 622.3 263.81 92.24 134.08 144.69 293.91 132.31 403.11-8.52 74.9-68.55 116.35-109.33 75.6zm430.81-697.09c-78.74-78.6-70.49-220.14 16.81-288.84 79.41-62.49 113.18-66.65 203.76-25.49 185.32 84.55 124.32 367.2-79.3 367.2-53.15 0-109.48-21.04-141.27-52.87zm185.04-132.17c0-35.25-17.62-52.87-52.87-52.87-50.92 0-71.59 51.78-35.24 88.12 36.34 36.48 88.11 15.72 88.11-35.25zm-7058-3819.78-911.19-911.29 105.74-105.73 911.18 911.29 911.18 911.46-105.73 105.73-911.18-911.46zm10644.84 838.32c-40.21-44.58 10.33-100.49 863.1-952.87l905.78-905.65 50.12 55.34c49.97 55.37 48.47 57.14-847.14 952.88-493.44 493.72-904.41 897.53-913.09 897.53-8.81 0-35.1-21.18-58.79-47.23zM4248.43 9283.91v-103.8h101.51v103.8c103.99 5.52 186.11 36.88 246.18 94.11 60.27 57.22 90.3 128.12 90.3 212.91 0 83.08-29.08 153.6-87.44 211.77-58.36 57.99-141.24 90.11-249.04 96v104.94h-101.51V9898.7c-96.57-3.81-176.99-33.27-241.24-88.59-64.25-55.13-96.37-128.31-96.37-219.18 0-91.06 32.12-164.05 96.18-218.8s144.48-84.02 241.43-88.21zm101.51 92.39v430.01c69.77-3.43 124.52-23.77 164.63-61.02 40.11-37.26 60.07-88.59 60.07-153.98 0-64.25-19.57-115.01-58.93-152.65-39.35-37.45-94.48-58.17-165.77-62.35zm-101.51 1.15c-67.3 3.04-121.67 22.81-163.3 59.69-41.63 36.88-62.54 88.21-62.54 154.17 0 65.2 20.53 116.34 61.59 153.6 41.06 37.26 95.81 57.22 164.25 60.27v-427.72zm521.63 330.2c0-109.31 30.42-190.29 91.44-242.95 50.76-43.72 112.93-65.58 186.11-65.58 81.18 0 147.71 26.61 199.42 79.84 51.51 53.04 77.37 126.61 77.37 220.33 0 76.03-11.41 135.73-34.22 179.26-22.82 43.53-56.08 77.37-99.81 101.52-43.53 24.14-91.25 36.12-142.76 36.12-82.89 0-149.79-26.43-200.94-79.47-51.13-53.03-76.61-129.45-76.61-229.06zm102.66.19c0 75.66 16.54 132.31 49.62 169.76 33.27 37.64 74.9 56.46 125.28 56.46 49.81 0 91.25-18.82 124.52-56.65 33.08-37.83 49.62-95.43 49.62-172.8 0-72.99-16.72-128.31-49.99-165.76-33.27-37.65-74.71-56.46-124.14-56.46-50.37 0-92.01 18.62-125.28 56.08-33.08 37.45-49.62 93.91-49.62 169.38zm491.79-296.18h479.06v83.26h-189.34v508.71h-100.38v-508.71h-189.34v-83.26zM5889 9707.65c0-109.31 30.42-190.29 91.44-242.95 50.76-43.72 112.93-65.58 186.11-65.58 81.18 0 147.71 26.61 199.42 79.84 51.51 53.04 77.37 126.61 77.37 220.33 0 76.03-11.41 135.73-34.22 179.26-22.82 43.53-56.08 77.37-99.81 101.52-43.53 24.14-91.25 36.12-142.76 36.12-82.89 0-149.79-26.43-200.94-79.47-51.13-53.03-76.61-129.45-76.61-229.06zm102.66.19c0 75.66 16.54 132.31 49.62 169.76 33.27 37.64 74.9 56.46 125.28 56.46 49.81 0 91.25-18.82 124.52-56.65 33.08-37.83 49.62-95.43 49.62-172.8 0-72.99-16.72-128.31-49.99-165.76-33.27-37.65-74.71-56.46-124.14-56.46-50.37 0-92.01 18.62-125.28 56.08-33.08 37.45-49.62 93.91-49.62 169.38zm886.25-296.18h230.97c56.65 0 98.85 4.76 126.61 14.26 27.57 9.51 51.32 26.81 71.1 52.09 19.96 25.48 29.84 55.7 29.84 91.06 0 28.32-5.89 53.03-17.48 73.94-11.79 21.1-29.27 38.78-52.85 52.85 27.75 9.31 50.75 26.62 69.2 52.08 18.25 25.29 27.38 55.51 27.38 90.3-3.61 56.08-23.76 97.71-60.08 124.71-36.31 27.19-89.15 40.68-158.35 40.68h-266.33v-591.98zm100.37 249.79h106.45c42.39 0 71.68-2.28 87.45-6.65 15.97-4.57 30.22-13.5 42.77-27.19 12.55-13.5 18.82-29.84 18.82-48.86 0-31.36-11.03-53.03-32.89-65.39-22.05-12.36-59.7-18.44-112.92-18.44h-109.69v166.53zm0 260.06h131.74c56.65 0 95.62-6.65 116.72-19.77 21.1-13.3 32.12-35.93 33.26-68.43 0-18.82-6.08-36.51-18.24-52.66-12.36-16.16-28.32-26.43-47.91-30.6-19.58-4.38-51.13-6.46-94.48-6.46h-121.09v177.93zm505.67 309.1v-818.95h91.25v77.76c21.48-30.04 45.81-52.66 72.99-67.68 27-15.02 59.89-22.62 98.47-22.62 50.57 0 95.05 12.92 133.64 38.96 38.6 25.86 67.68 62.54 87.45 109.69 19.58 47.34 29.46 99.04 29.46 155.5 0 60.27-10.83 114.63-32.51 163.1-21.67 48.29-53.22 85.36-94.66 111.21-41.25 25.67-84.78 38.6-130.41 38.6-33.45 0-63.49-7.03-89.92-21.1-26.61-14.07-48.28-31.75-65.39-53.23v288.76h-100.37zm91.25-519.35c0 75.85 15.4 131.93 46 168.24 30.8 36.31 68.06 54.56 111.78 54.56 44.49 0 82.51-18.82 114.07-56.46 31.74-37.64 47.52-95.81 47.52-174.7 0-75.28-15.4-131.55-46.38-169-30.99-37.45-67.87-56.08-110.83-56.08-42.58 0-80.22 19.96-112.92 59.69-32.89 39.92-49.24 97.71-49.24 173.75zm946.89 100.76 103.8 13.69c-16.16 60.26-46.38 107.21-90.49 140.48-44.1 33.26-100.37 49.99-169 49.99-86.3 0-154.74-26.62-205.3-79.85-50.56-53.03-75.85-127.74-75.85-223.75 0-99.23 25.48-176.41 76.61-231.16 51.13-54.93 117.48-82.31 199.03-82.31 78.9 0 143.34 26.8 193.34 80.6 49.99 53.8 75.09 129.46 75.09 226.99 0 5.88-.19 14.83-.57 26.61h-440.84c3.8 64.83 22.05 114.64 55.13 149.05 32.88 34.41 74.13 51.7 123.37 51.7 36.69 0 68.06-9.69 93.92-29.08 26.04-19.39 46.57-50.37 61.77-92.96zm-328.48-160.82h329.63c-4.38-49.81-17.11-87.07-37.84-111.97-31.74-38.6-73.18-57.99-123.94-57.99-46.01 0-84.6 15.41-115.97 46.2-31.18 30.79-48.48 72.04-51.89 123.76zm562.5-239.53h154.36l156.46 473.73 173.17-473.73h143.34v591.98h-100.37v-476.58l-174.32 476.58h-89.73l-164.82-499.39v499.39h-98.09v-591.98zm1184.51 400.36 103.8 13.69c-16.16 60.26-46.38 107.21-90.49 140.48-44.1 33.26-100.37 49.99-169 49.99-86.3 0-154.74-26.62-205.3-79.85-50.56-53.03-75.85-127.74-75.85-223.75 0-99.23 25.48-176.41 76.61-231.16 51.13-54.93 117.48-82.31 199.03-82.31 78.9 0 143.34 26.8 193.34 80.6 49.99 53.8 75.09 129.46 75.09 226.99 0 5.88-.19 14.83-.57 26.61h-440.84c3.8 64.83 22.05 114.64 55.13 149.05 32.88 34.41 74.13 51.7 123.37 51.7 36.69 0 68.06-9.69 93.92-29.08 26.04-19.39 46.57-50.37 61.77-92.96zm-328.48-160.82h329.63c-4.38-49.81-17.11-87.07-37.84-111.97-31.74-38.6-73.18-57.99-123.94-57.99-46.01 0-84.6 15.41-115.97 46.2-31.18 30.79-48.48 72.04-51.89 123.76zm559.09-239.53h100.37v246.38h278.31v-246.38h100.37v591.98h-100.37v-262.33h-278.31v262.33h-100.37v-591.98zm629.8 0h100.37v246.38h278.31v-246.38h100.37v591.98h-100.37v-262.33h-278.31v262.33h-100.37v-591.98zm592.16 295.99c0-109.31 30.42-190.29 91.44-242.95 50.76-43.72 112.93-65.58 186.11-65.58 81.18 0 147.71 26.61 199.42 79.84 51.51 53.04 77.37 126.61 77.37 220.33 0 76.03-11.41 135.73-34.22 179.26-22.82 43.53-56.08 77.37-99.81 101.52-43.53 24.14-91.25 36.12-142.76 36.12-82.89 0-149.79-26.43-200.94-79.47-51.13-53.03-76.61-129.45-76.61-229.06zm102.66.19c0 75.66 16.54 132.31 49.62 169.76 33.27 37.64 74.9 56.46 125.28 56.46 49.81 0 91.25-18.82 124.52-56.65 33.08-37.83 49.62-95.43 49.62-172.8 0-72.99-16.72-128.31-49.99-165.76-33.27-37.65-74.71-56.46-124.14-56.46-50.37 0-92.01 18.62-125.28 56.08-33.08 37.45-49.62 93.91-49.62 169.38zm-6590.3 1274.06c0-109.31 30.42-190.29 91.44-242.95 50.76-43.72 112.93-65.58 186.11-65.58 81.18 0 147.71 26.61 199.42 79.84 51.51 53.04 77.37 126.61 77.37 220.33 0 76.03-11.41 135.73-34.22 179.26-22.82 43.53-56.08 77.37-99.81 101.52-43.53 24.14-91.25 36.12-142.76 36.12-82.89 0-149.79-26.43-200.94-79.47-51.13-53.03-76.61-129.45-76.61-229.06zm102.66.19c0 75.66 16.54 132.31 49.62 169.76 33.27 37.64 74.9 56.46 125.28 56.46 49.81 0 91.25-18.82 124.52-56.65 33.08-37.83 49.62-95.43 49.62-172.8 0-72.99-16.72-128.31-49.99-165.76-33.27-37.65-74.71-56.46-124.14-56.46-50.37 0-92.01 18.62-125.28 56.08-33.08 37.45-49.62 93.91-49.62 169.38zm491.79-296.18h479.06v83.26h-189.34v508.71h-100.38v-508.71H5500v-83.26zm948.79 375.26 98.09 13.69c-10.84 67.49-38.21 120.14-82.51 158.36-44.29 38.21-98.85 57.22-163.29 57.22-80.8 0-145.81-26.43-194.85-79.28-49.24-52.84-73.75-128.5-73.75-226.98 0-63.87 10.64-119.57 31.74-167.48 21.1-47.72 53.23-83.64 96.57-107.4 43.15-23.96 90.11-35.93 141.05-35.93 64.06 0 116.72 16.16 157.41 48.67 40.86 32.5 67.1 78.7 78.51 138.39l-96.95 14.83c-9.31-39.72-25.67-69.57-49.43-89.72-23.58-19.96-52.09-30.04-85.54-30.04-50.57 0-91.64 18.06-123.38 54.18-31.56 36.31-47.34 93.34-47.34 171.67 0 79.46 15.21 137.06 45.63 172.98 30.6 35.93 70.34 53.99 119.19 53.99 39.53 0 72.42-11.98 98.66-36.12 26.43-23.96 43.15-61.02 50.18-111.02zm179.07 444.27-11.41-92.78c22.06 5.89 41.06 8.94 57.42 8.94 22.43 0 40.29-3.81 53.6-11.22 13.5-7.41 24.53-17.87 33.08-31.18 6.27-10.07 16.54-34.98 30.6-74.89 1.91-5.52 4.76-13.69 8.94-24.53l-224.7-593.87h107.21l123.57 341.8c16.16 43.15 30.41 88.78 43.15 136.69 11.59-45.06 25.28-89.54 41.25-133.26l126.23-345.23h100.18l-223.75 602.24c-24.14 64.83-42.96 109.31-56.46 133.84-17.87 32.88-38.41 57.03-61.4 72.42-23.19 15.4-50.75 23-82.7 23-19.38 0-41.05-3.99-64.82-11.97zm522.39-819.53h479.06v83.26h-189.34v508.71h-100.38v-508.71h-189.34v-83.26zm948.79 375.26 98.09 13.69c-10.84 67.49-38.21 120.14-82.51 158.36-44.29 38.21-98.85 57.22-163.29 57.22-80.8 0-145.81-26.43-194.85-79.28-49.24-52.84-73.75-128.5-73.75-226.98 0-63.87 10.64-119.57 31.74-167.48 21.1-47.72 53.23-83.64 96.57-107.4 43.15-23.96 90.11-35.93 141.05-35.93 64.06 0 116.72 16.16 157.41 48.67 40.86 32.5 67.1 78.7 78.51 138.39l-96.95 14.83c-9.31-39.72-25.67-69.57-49.43-89.72-23.58-19.96-52.09-30.04-85.54-30.04-50.57 0-91.64 18.06-123.38 54.18-31.56 36.31-47.34 93.34-47.34 171.67 0 79.46 15.21 137.06 45.63 172.98 30.6 35.93 70.34 53.99 119.19 53.99 39.53 0 72.42-11.98 98.66-36.12 26.43-23.96 43.15-61.02 50.18-111.02zm131.16-375.26h479.06v83.26h-189.34v508.71h-100.38v-508.71H8230.2v-83.26zm574.87 0h230.97c56.65 0 98.85 4.76 126.61 14.26 27.57 9.51 51.32 26.81 71.1 52.09 19.96 25.48 29.84 55.7 29.84 91.06 0 28.32-5.89 53.03-17.48 73.94-11.79 21.1-29.27 38.78-52.85 52.85 27.75 9.31 50.75 26.62 69.2 52.08 18.25 25.29 27.38 55.51 27.38 90.3-3.61 56.08-23.76 97.71-60.08 124.71-36.31 27.19-89.15 40.68-158.35 40.68h-266.33v-591.98zm100.37 249.79h106.45c42.39 0 71.68-2.28 87.45-6.65 15.97-4.57 30.22-13.5 42.77-27.19 12.55-13.5 18.82-29.84 18.82-48.86 0-31.36-11.03-53.03-32.89-65.39-22.05-12.36-59.7-18.44-112.92-18.44h-109.69v166.53zm0 260.06h131.74c56.65 0 95.62-6.65 116.72-19.77 21.1-13.3 32.12-35.93 33.26-68.43 0-18.82-6.08-36.51-18.24-52.66-12.36-16.16-28.32-26.43-47.91-30.6-19.58-4.38-51.13-6.46-94.48-6.46h-121.09v177.93zm476.01 309.68-11.41-92.78c22.06 5.89 41.06 8.94 57.42 8.94 22.43 0 40.29-3.81 53.6-11.22 13.5-7.41 24.53-17.87 33.08-31.18 6.27-10.07 16.54-34.98 30.6-74.89 1.91-5.52 4.76-13.69 8.94-24.53l-224.7-593.87h107.21l123.57 341.8c16.16 43.15 30.41 88.78 43.15 136.69 11.59-45.06 25.28-89.54 41.25-133.26l126.23-345.23h100.18l-223.75 602.24c-24.14 64.83-42.96 109.31-56.46 133.84-17.87 32.88-38.41 57.03-61.4 72.42-23.19 15.4-50.75 23-82.7 23-19.38 0-41.05-3.99-64.82-11.97zm965.89-419.17 103.8 13.69c-16.16 60.26-46.38 107.21-90.49 140.48-44.1 33.26-100.37 49.99-169 49.99-86.3 0-154.74-26.62-205.3-79.85-50.56-53.03-75.85-127.74-75.85-223.75 0-99.23 25.48-176.41 76.61-231.16 51.13-54.93 117.48-82.31 199.03-82.31 78.9 0 143.34 26.8 193.34 80.6 49.99 53.8 75.09 129.46 75.09 226.99 0 5.88-.19 14.83-.57 26.61h-440.84c3.8 64.83 22.05 114.64 55.13 149.05 32.88 34.41 74.13 51.7 123.37 51.7 36.69 0 68.06-9.69 93.92-29.08 26.04-19.39 46.57-50.37 61.77-92.96zm-328.48-160.82h329.63c-4.38-49.81-17.11-87.07-37.84-111.97-31.74-38.6-73.18-57.99-123.94-57.99-46.01 0-84.6 15.41-115.97 46.2-31.18 30.79-48.48 72.04-51.89 123.76zm468.79-239.53h479.06v83.26h-189.34v508.71h-100.38v-508.71h-189.34v-83.26z" style="fill:#898989;fill-rule:nonzero"/></svg><svg viewBox="0 0 50 50" xml:space="preserve" id="success" xmlns="http://www.w3.org/2000/svg"><circle style="fill:#25ae88" cx="25" cy="25" r="25"/><path style="fill:none;stroke:#fff;stroke-width:2;stroke-linecap:round;stroke-linejoin:round;stroke-miterlimit:10" d="M38 15 22 33l-10-8"/></svg><svg viewBox="0 0 256 256" preserveAspectRatio="xMidYMid" id="tg" xmlns="http://www.w3.org/2000/svg"><path d="M128 0C57.307 0 0 57.307 0 128s57.307 128 128 128 128-57.307 128-128S198.693 0 128 0Z" fill="#40B3E0"/><path d="M190.283 73.63 167.42 188.899s-3.197 7.994-11.99 4.157l-52.758-40.448-19.184-9.272-32.294-10.872s-4.956-1.758-5.436-5.595c-.48-3.837 5.596-5.915 5.596-5.915l128.376-50.36s10.552-4.636 10.552 3.038" fill="#FFF"/><path d="M98.618 187.603s-1.54-.144-3.46-6.22c-1.917-6.075-11.67-38.049-11.67-38.049l77.538-49.24s4.477-2.718 4.317 0c0 0 .799.48-1.6 2.718-2.397 2.239-60.91 54.836-60.91 54.836" fill="#D2E5F1"/><path d="m122.901 168.115-20.867 19.026s-1.632 1.238-3.416.462l3.996-35.34" fill="#B5CFE4"/></svg><svg fill="none" viewBox="0 0 24 24" id="whatsapp" xmlns="http://www.w3.org/2000/svg"><path d="M20.487 20.484c4.686-4.686 4.686-12.284 0-16.97-4.686-4.687-12.284-4.687-16.97 0-4.687 4.686-4.687 12.284 0 16.97 4.686 4.686 12.284 4.686 16.97 0z" fill="#3C3"/><path fill-rule="evenodd" clip-rule="evenodd" d="M12.134 17.927a6.191 6.191 0 0 1-3.392-1.015l-2.362.746.764-2.276a6.037 6.037 0 0 1-1.179-3.587c0-.2.014-.387.041-.588.3-3.1 2.936-5.522 6.123-5.522 3.237 0 5.9 2.49 6.15 5.636.01.164.01.328.01.474.004 3.377-2.76 6.132-6.155 6.132zm7.32-6.305c-.096-3.938-3.337-7.088-7.32-7.088-3.943 0-7.152 3.077-7.316 6.951-.01.1-.01.214-.01.31 0 1.38.388 2.663 1.048 3.769l-1.325 3.901 4.061-1.288a7.366 7.366 0 0 0 3.537.897c4.047 0 7.339-3.25 7.339-7.275.004-.063-.014-.118-.014-.177z" fill="#FEFEFE"/><path fill-rule="evenodd" clip-rule="evenodd" d="M14.065 12.82c-.177-.046-.29-.087-.418.1-.183.29-.57.928-.947.737-.187-.087-.765-.273-1.452-.888a5.367 5.367 0 0 1-.997-1.229c-.16-.296.341-.605.523-.979a.308.308 0 0 0-.014-.31c-.036-.086-.396-.973-.55-1.324-.146-.36-.3-.3-.396-.3-.997 0-1.466.705-1.466 1.702 0 .2.04.414.1.601.177.638.573 1.152.637 1.238.087.123 1.238 1.976 3.064 2.69 1.839.716 1.839.474 2.162.447.323-.027 1.06-.423 1.211-.851.146-.415.146-.774.096-.852-.055-.1-1.553-.778-1.553-.783z" fill="#FEFEFE"/></svg></svg>