<svg width="960" height="401" viewBox="0 0 960 401" fill="none" xmlns="http://www.w3.org/2000/svg">
<path d="M175.229 394.335V319.356H0V257.151L154.157 6.66483H244.544V262.705H295.006V319.356H244.544V394.335H175.229ZM59.8884 262.705H175.229V77.7562H170.793L59.8884 262.705Z" fill="#F2F2F2"/>
<path d="M481.109 401C456.34 401 434.899 396.557 416.784 387.67C398.67 378.414 383.698 365.269 371.868 348.237C360.038 331.205 351.166 310.284 345.251 285.476C339.706 260.669 336.933 232.343 336.933 200.5C336.933 169.027 339.706 140.887 345.251 116.079C351.166 90.9007 360.038 69.7955 371.868 52.7632C383.698 35.7309 398.67 22.7715 416.784 13.885C434.899 4.62834 456.34 0 481.109 0C530.277 0 566.506 17.5877 589.795 52.7632C613.455 87.9386 625.285 137.184 625.285 200.5C625.285 263.816 613.455 313.061 589.795 348.237C566.506 383.412 530.277 401 481.109 401ZM481.109 339.35C505.878 339.35 523.068 330.094 532.68 311.58C542.661 292.697 547.652 267.333 547.652 235.49V165.51C547.652 133.667 542.661 108.488 532.68 89.9751C523.068 71.0914 505.878 61.6496 481.109 61.6496C456.34 61.6496 438.965 71.0914 428.984 89.9751C419.372 108.488 414.566 133.667 414.566 165.51V235.49C414.566 267.333 419.372 292.697 428.984 311.58C438.965 330.094 456.34 339.35 481.109 339.35Z" fill="#F2F2F2"/>
<path d="M840.223 394.335V319.356H664.994V257.151L819.151 6.66483H909.538V262.705H960V319.356H909.538V394.335H840.223ZM724.882 262.705H840.223V77.7562H835.787L724.882 262.705Z" fill="#F2F2F2"/>
</svg>
