<?xml version="1.0" encoding="UTF-8"?>
<!DOCTYPE svg PUBLIC "-//W3C//DTD SVG 1.1//EN" "http://www.w3.org/Graphics/SVG/1.1/DTD/svg11.dtd">
<!-- Creator: CorelDRAW 2019 (64-Bit) -->
<svg xmlns="http://www.w3.org/2000/svg" xml:space="preserve" width="55mm" height="16mm" version="1.1" style="shape-rendering:geometricPrecision; text-rendering:geometricPrecision; image-rendering:optimizeQuality; fill-rule:evenodd; clip-rule:evenodd"
viewBox="0 0 5500 1600"
 xmlns:xlink="http://www.w3.org/1999/xlink"
 xmlns:xodm="http://www.corel.com/coreldraw/odm/2003">
 <defs>
  <style type="text/css">
   <![CDATA[
    .fil0 {fill:#2B2A29;fill-rule:nonzero}
   ]]>
  </style>
 </defs>
 <g id="Слой_x0020_1">
  <metadata id="CorelCorpID_0Corel-Layer"/>
  <path class="fil0" d="M1458.03 37.75l27.48 25.8c-27.48,30.5 -45.58,58.99 -53.95,85.13 -8.38,26.47 -12.74,66.69 -12.74,120.98 0,222.54 49.6,489.64 149.14,801.32 55.63,172.6 99.2,259.06 130.7,259.06 15.08,0 39.21,-17.09 72.39,-51.28l24.8 23.46 -12.06 13.08c-56.31,59.98 -107.58,118.3 -154.17,174.6l-19.43 24.8c-83.12,-172.26 -152.49,-359.94 -208.13,-563.03 -55.96,-203.09 -83.78,-368.32 -83.78,-496 0,-53.96 3.69,-115.29 11.06,-185l3.02 -26.48c-52.29,54.63 -132.72,149.81 -240.63,285.54 -67.37,84.46 -128.36,157.52 -182.65,219.18l-22.46 25.81c35.86,-2.35 76.08,-3.69 120.65,-3.69l285.87 4.69 40.22 1.68c-23.79,65.35 -46.58,146.45 -68.7,242.97l-37.54 0c9.72,-35.19 14.75,-62.67 14.75,-82.11 0,-24.8 -8.38,-41.22 -25.47,-48.93 -17.09,-7.7 -52.28,-11.73 -105.24,-11.73l-142.76 0 -160.54 2.69 -19.43 1 -25.47 25.47c-141.43,137.41 -236.95,227.23 -285.88,269.12 -48.93,41.89 -121.65,94.51 -217.84,157.85l-27.48 18.77c46.25,-4.36 96.52,-6.37 150.14,-6.37 123.67,0 218.18,3.68 283.87,11.39l184.32 20.11c49.27,5.7 93.51,8.71 132.72,8.71 101.54,0 182.31,-26.14 242.97,-78.08 60.66,-52.28 97.86,-128.7 112.27,-228.9 24.47,14.41 36.53,32.84 36.53,55.97 0,55.96 -37.53,120.31 -112.94,193.04 -117.3,112.27 -244.31,168.57 -382.06,168.57 -45.58,0 -108.58,-4.02 -188.34,-12.4 -194.38,-19.77 -346.87,-29.83 -457.8,-29.83l-206.11 5.03 -18.44 0 61.67 -99.54c172.93,-62.67 332.79,-160.53 480.25,-293.58 147.13,-133.05 354.91,-366.97 623.36,-701.44 129.03,-160.53 223.54,-269.79 283.86,-327.43z"/>
  <path id="1" class="fil0" d="M2395.75 146c0,79.76 -52.95,239.96 -158.52,480.59 -183.32,418.92 -276.49,661.89 -279.84,729.59 -1.34,29.49 10.39,43.57 34.86,42.23 18.76,-0.67 52.28,-20.11 100.2,-58.31l11.73 -9.05 18.77 25.47c-105.23,92.16 -182.32,138.41 -231.58,138.41 -39.21,0 -58.65,-27.48 -58.65,-82.44 0,-42.57 13.41,-102.22 40.55,-178.97 27.15,-76.41 91.83,-237.95 194.38,-483.94l93.17 -223.87c55.97,-134.39 84.12,-212.48 84.12,-234.93 0,-17.77 -10.05,-26.48 -30.16,-26.48 -7.38,0 -24.47,4.36 -51.95,12.74 -3.02,1 -8.04,2.68 -14.41,4.69l-10.05 -28.49 14.74 -6.03c113.28,-43.23 194.05,-77.08 242.64,-101.21z"/>
  <path id="2" class="fil0" d="M2695.03 680.54l-12.74 30.17 -138.41 0 -8.04 16.75c-12.4,26.14 -46.25,102.55 -101.21,229.57 -22.46,51.61 -53.96,123 -94.51,214.16 -47.93,105.9 -72.06,172.93 -72.06,201.08 0,28.15 14.41,42.23 43.24,42.23 34.85,0 82.78,-20.45 143.1,-61.67l15.75 25.47c-39.21,30.16 -84.12,55.97 -134.39,77.08 -50.6,21.12 -92.16,31.51 -124.67,31.51 -49.26,0 -73.73,-19.44 -73.73,-57.98 0,-27.48 27.48,-104.57 82.44,-231.58l102.22 -232.59c56.97,-131.37 89.82,-208.46 99.2,-231.58l9.72 -22.45 -128.69 0 13.74 -30.17 12.73 0c56.31,0 94.18,-8.71 113.62,-26.47 19.1,-17.77 45.57,-67.7 79.09,-149.81 9.72,1.01 16.09,1.34 19.44,1.34 31.5,0 62.67,-4.02 93.17,-12.06 -7.04,19.1 -19.78,50.27 -38.21,93.5l-29.49 70.71 -9.72 22.79 138.41 0z"/>
  <path id="3" class="fil0" d="M3093.51 1062.27c9.05,18.43 13.41,34.51 13.41,48.93 0,62.67 -43.57,135.06 -130.37,216.5 -127.02,119.64 -234.94,179.29 -323.75,179.29 -76.74,0 -114.95,-43.56 -114.95,-130.7 0,-98.2 29.83,-201.08 89.82,-309 59.99,-108.25 136.73,-197.06 230.24,-267.1 113.94,-85.13 215.16,-127.69 304.3,-127.69 51.61,0 77.42,19.1 77.42,57.31 0,24.8 -12.4,54.96 -37.2,90.15 -24.8,34.85 -55.97,66.69 -93.17,94.84 -34.85,25.81 -78.76,49.27 -132.04,71.05 -53.29,21.79 -94.51,32.51 -123.33,32.51 -30.84,0 -51.95,-17.09 -63.68,-51.27 27.48,4.69 49.27,7.03 65.35,7.03 65.35,0 125.68,-19.1 180.64,-56.97 55.3,-37.87 82.78,-78.76 82.78,-123 0,-31.5 -20.11,-47.25 -60.66,-47.25 -72.39,0 -146.45,44.24 -221.86,133.05 -53.62,62.34 -97.53,135.4 -132.05,218.85 -34.51,83.45 -51.94,157.85 -51.94,223.2 0,67.03 28.15,100.54 84.45,100.54 61.33,0 125.01,-33.51 191.37,-100.88 66.35,-67.03 121.32,-153.49 165.22,-259.39z"/>
  <path id="4" class="fil0" d="M3394.8 706.01l536.22 -4.02c-5.36,8.05 -8.38,12.74 -9.72,13.74l-48.26 70.72 -42.23 59.99c-87.8,127.68 -170.25,219.85 -247.33,276.49 -77.42,56.3 -172.59,94.84 -285.87,115.28 35.19,24.13 73.39,56.98 114.62,98.53 54.96,55.97 105.9,83.79 152.82,83.79 52.95,0 95.51,-24.8 128.36,-74.4 32.51,-49.27 48.93,-113.95 48.93,-193.38 0,-35.86 -5.03,-74.4 -14.75,-114.95 43.23,25.47 65.02,68.7 65.02,129.7 0,54.96 -23.8,120.65 -71.72,197.06 -58.65,94.84 -133.05,142.43 -223.54,142.43 -75.74,0 -150.48,-40.88 -224.54,-122.66 -44.91,-49.6 -78.76,-74.4 -100.88,-74.4 -24.13,0 -52.95,26.81 -86.46,80.44l-37.2 0c43.9,-70.72 85.46,-144.45 124.67,-220.86 32.17,6.37 61.66,9.72 88.47,9.72 103.9,0 201.09,-29.83 290.9,-89.48 90.16,-59.99 178.3,-153.5 264.76,-280.51 -30.83,-2.68 -65.01,-4.03 -103.22,-4.03 -154.16,0 -250.35,6.71 -287.55,20.45 -37.2,13.74 -71.05,55.3 -101.21,124.67l-6.7 15.75 -33.52 0 9.72 -22.45c30.84,-66.03 61.33,-137.41 91.5,-214.16l8.71 -23.46z"/>
  <path id="5" class="fil0" d="M4102.61 706.01l536.22 -4.02c-5.36,8.05 -8.38,12.74 -9.72,13.74l-48.26 70.72 -42.23 59.99c-87.8,127.68 -170.25,219.85 -247.33,276.49 -77.42,56.3 -172.59,94.84 -285.87,115.28 35.19,24.13 73.39,56.98 114.62,98.53 54.96,55.97 105.9,83.79 152.82,83.79 52.95,0 95.51,-24.8 128.36,-74.4 32.51,-49.27 48.93,-113.95 48.93,-193.38 0,-35.86 -5.03,-74.4 -14.75,-114.95 43.23,25.47 65.02,68.7 65.02,129.7 0,54.96 -23.8,120.65 -71.72,197.06 -58.65,94.84 -133.05,142.43 -223.54,142.43 -75.74,0 -150.48,-40.88 -224.54,-122.66 -44.91,-49.6 -78.76,-74.4 -100.88,-74.4 -24.13,0 -52.95,26.81 -86.46,80.44l-37.2 0c43.9,-70.72 85.46,-144.45 124.67,-220.86 32.17,6.37 61.66,9.72 88.47,9.72 103.9,0 201.09,-29.83 290.9,-89.48 90.16,-59.99 178.3,-153.5 264.76,-280.51 -30.83,-2.68 -65.01,-4.03 -103.22,-4.03 -154.16,0 -250.35,6.71 -287.55,20.45 -37.2,13.74 -71.05,55.3 -101.21,124.67l-6.7 15.75 -33.52 0 9.72 -22.45c30.84,-66.03 61.33,-137.41 91.5,-214.16l8.71 -23.46z"/>
  <path id="6" class="fil0" d="M5202.2 1346.8l17.76 25.47c-68.71,51.61 -162.54,92.16 -281.85,121.65 3.35,-66.02 42.22,-179.97 116.96,-341.5 -84.46,99.2 -171.59,181.31 -261.07,246.66 -89.48,65.35 -160.2,97.86 -212.82,97.86 -45.91,0 -68.7,-29.16 -68.7,-87.14 0,-98.86 44.24,-205.44 132.72,-320.05 88.47,-114.62 199.4,-208.79 333.12,-282.86 150.48,-84.12 300.62,-126.35 449.76,-126.35 21.11,0 31.5,7.71 31.5,23.46 0,13.07 -9.72,38.21 -29.49,74.74 -44.57,-7.71 -87.81,-11.73 -129.7,-11.73 -200.08,0 -372,77.42 -516.11,231.91 -106.24,113.28 -159.19,225.89 -159.19,337.49 0,51.95 19.44,78.09 57.98,78.09 32.84,0 80.09,-28.16 141.76,-84.46 61.67,-56.64 116.63,-121.99 165.22,-196.05 66.7,-103.23 112.27,-210.14 136.74,-321.07 27.48,17.09 41.22,48.6 41.22,94.18 0,63.67 -31.84,136.4 -95.51,218.84 31.5,-2.68 70.38,-11.73 116.96,-27.48l-7.71 16.76c-62.67,139.41 -94.17,221.19 -94.17,244.65 0,18.77 9.05,27.81 26.81,26.47 16.42,-1.34 45.58,-14.41 87.81,-39.54z"/>
 </g>
</svg>
