<svg width="24" height="24" fill="none" xmlns="http://www.w3.org/2000/svg"><path d="M20.487 20.484c4.686-4.686 4.686-12.284 0-16.97-4.686-4.687-12.284-4.687-16.97 0-4.687 4.686-4.687 12.284 0 16.97 4.686 4.686 12.284 4.686 16.97 0z" fill="#3C3"/><path fill-rule="evenodd" clip-rule="evenodd" d="M12.134 17.927a6.191 6.191 0 01-3.392-1.015l-2.362.746.764-2.276a6.037 6.037 0 01-1.179-3.587c0-.2.014-.387.041-.588.3-3.1 2.936-5.522 6.123-5.522 3.237 0 5.9 2.49 6.15 5.636.01.164.01.328.01.474.004 3.377-2.76 6.132-6.155 6.132zm7.32-6.305c-.096-3.938-3.337-7.088-7.32-7.088-3.943 0-7.152 3.077-7.316 6.951-.01.1-.01.214-.01.31 0 1.38.388 2.663 1.048 3.769l-1.325 3.901 4.061-1.288a7.366 7.366 0 003.537.897c4.047 0 7.339-3.25 7.339-7.275.004-.063-.014-.118-.014-.177z" fill="#FEFEFE"/><path fill-rule="evenodd" clip-rule="evenodd" d="M14.065 12.82c-.177-.046-.29-.087-.418.1-.183.29-.57.928-.947.737-.187-.087-.765-.273-1.452-.888a5.367 5.367 0 01-.997-1.229c-.16-.296.341-.605.523-.979a.308.308 0 00-.014-.31c-.036-.086-.396-.973-.55-1.324-.146-.36-.3-.3-.396-.3-.997 0-1.466.705-1.466 1.702 0 .2.04.414.1.601.177.638.573 1.152.637 1.238.087.123 1.238 1.976 3.064 2.69 1.839.716 1.839.474 2.162.447.323-.027 1.06-.423 1.211-.851.146-.415.146-.774.096-.852-.055-.1-1.553-.778-1.553-.783z" fill="#FEFEFE"/></svg>